<svg width="136" height="136" viewBox="0 0 136 136" fill="none" xmlns="http://www.w3.org/2000/svg">
<path d="M68 136C105.555 136 136 105.555 136 68C136 30.4446 105.555 0 68 0C30.4446 0 0 30.4446 0 68C0 105.555 30.4446 136 68 136Z" fill="white"/>
<path d="M108.203 98.2255C109.53 99.3696 110.156 101.271 108.706 102.955C107.067 104.856 104.837 104.434 102.585 102.496C100.304 100.528 99.5394 98.0069 101.31 95.9521C101.827 95.3473 102.316 95.0048 103.11 94.655L104.502 95.8573C103.839 95.8719 102.964 96.0177 102.323 96.7536C101.456 97.7592 101.383 99.508 103.256 101.14C102.92 100.273 103.117 99.2603 103.788 98.4806C105.063 97.0159 107.008 97.1981 108.203 98.2255ZM107.336 99.4789C106.382 98.6555 105.274 98.7648 104.626 99.5226C103.984 100.266 104.043 101.373 104.99 102.197C105.937 103.02 107.037 102.896 107.679 102.16C108.334 101.403 108.291 100.302 107.336 99.4789Z" fill="#00211A"/>
<path d="M79.8283 113.593C79.2672 111.932 79.6971 109.979 81.7957 109.265C84.1711 108.463 85.8836 109.957 86.8308 112.77C87.8 115.626 87.1733 118.184 84.6011 119.051C83.8506 119.306 83.253 119.357 82.3932 119.255L81.803 117.514C82.3786 117.841 83.2093 118.162 84.1347 117.842C85.3953 117.419 86.3426 115.94 85.563 113.586C85.4099 114.504 84.7322 115.277 83.7558 115.612C81.9195 116.238 80.3384 115.094 79.8283 113.593ZM81.2127 112.959C81.6135 114.154 82.6264 114.621 83.5664 114.3C84.4918 113.987 85.0164 113.003 84.6084 111.808C84.2076 110.613 83.202 110.161 82.2693 110.475C81.3293 110.795 80.8047 111.764 81.2127 112.959Z" fill="#00211A"/>
<path d="M91.7727 108.66C90.7817 107.217 90.6579 105.221 92.4868 103.96C94.5563 102.539 96.6038 103.516 98.2871 105.957C99.9922 108.434 100.094 111.072 97.8572 112.61C97.2014 113.061 96.6403 113.273 95.7877 113.404L94.7457 111.888C95.387 112.041 96.2687 112.129 97.0775 111.568C98.1705 110.817 98.6806 109.141 97.2888 107.086C97.3908 108.012 96.9463 108.944 96.101 109.527C94.5053 110.635 92.669 109.965 91.7727 108.66ZM92.9313 107.669C93.6454 108.704 94.7457 108.879 95.5618 108.318C96.3707 107.764 96.5966 106.671 95.8825 105.636C95.1684 104.602 94.0753 104.434 93.2738 104.995C92.4504 105.556 92.2172 106.635 92.9313 107.669Z" fill="#00211A"/>
<path d="M72.9297 111.21L71.0352 112.121C71.0352 112.121 71.5233 112.376 71.6399 113.63L72.2812 120.166C72.3467 120.858 72.1063 121.463 72.1063 121.463L74.2049 121.259C74.2049 121.259 73.8551 120.712 73.7822 120.02L72.9297 111.21Z" fill="#00211A"/>
<path d="M40.6901 104.987C41.0908 104.404 41.8997 104.346 42.7085 104.907C43.6849 105.585 43.9108 106.445 44.0347 107.159L45.237 105.417C44.7342 105.199 44.4792 104.506 43.4663 103.807C42.06 102.838 40.282 102.874 39.4003 104.149C37.666 106.656 41.9798 108.915 40.6682 110.809C40.1581 111.545 39.1744 111.604 38.2781 110.984C37.0467 110.132 36.7989 108.733 36.8135 107.851L35.582 109.629C35.8152 110.372 36.3253 111.268 37.4693 112.063C39.6408 113.564 41.1928 112.609 41.9288 111.538C43.9035 108.696 39.6262 106.525 40.6901 104.987Z" fill="#00211A"/>
<path d="M33.6974 96.7389C33.6974 96.7389 34.8341 98.036 35.366 98.6481C35.9417 99.3039 36.2186 100.076 36.2186 100.076L37.2023 98.8229L33.4569 94.5383C33.4569 94.5383 33.231 95.1359 32.6991 95.6022C32.1671 96.0686 27.5984 100.062 27.081 100.521C26.5636 100.98 25.9297 101.133 25.9297 101.133L29.6751 105.417L31.0523 104.609C31.0523 104.609 30.3527 104.259 29.7479 103.567C29.2087 102.955 28.0793 101.658 28.0793 101.658L30.6442 99.4132C30.6442 99.4132 31.3146 100.186 31.7955 100.732C32.3639 101.381 32.5461 102.044 32.5461 102.044L33.9597 100.805C33.9597 100.805 33.3185 100.528 32.7574 99.8868C32.2764 99.3403 31.6061 98.5679 31.6061 98.5679L33.6974 96.7389Z" fill="#00211A"/>
<path d="M50.9195 118.782C50.9195 118.782 50.8393 118.133 51.0725 117.485L53.6083 110.431L54.6868 110.817C55.5466 111.131 56.1295 111.655 56.1295 111.655L56.3772 110.081L50.2637 107.881L49.4548 109.258C49.4548 109.258 50.2345 109.221 51.1016 109.535L52.1801 109.921L49.6443 116.974C49.4111 117.623 48.9375 118.068 48.9375 118.068L50.9195 118.782Z" fill="#00211A"/>
<path d="M57.9108 120.683C58.4139 120.683 58.8217 120.275 58.8217 119.772C58.8217 119.269 58.4139 118.861 57.9108 118.861C57.4078 118.861 57 119.269 57 119.772C57 120.275 57.4078 120.683 57.9108 120.683Z" fill="#00211A"/>
<path d="M38.033 36.6522C38.0039 36.6085 37.9529 36.5793 37.9019 36.5866C37.8946 36.5866 37.4064 36.6595 36.5903 35.9527L31.1179 31.2454C30.3018 30.5386 30.2945 30.0431 30.2945 30.0431C30.2945 29.9848 30.2654 29.9411 30.2143 29.9192C30.1633 29.8974 30.105 29.9119 30.0686 29.9557L28.4145 31.8794C28.3781 31.9231 28.3781 31.9814 28.4 32.0251C28.4291 32.0688 28.4801 32.098 28.5311 32.0907C28.5384 32.0907 29.0266 32.0178 29.8427 32.7246L33.4643 35.8361L26.0318 34.7358C25.988 34.7285 25.9443 34.7431 25.9151 34.7795L24.64 36.266C24.6035 36.3097 24.5963 36.368 24.6254 36.4117C24.6546 36.4554 24.7056 36.4846 24.7566 36.4773C24.7639 36.4773 25.2521 36.4044 26.0682 37.1112L31.5405 41.8185C32.3567 42.5253 32.3639 43.0208 32.3639 43.0208C32.3639 43.0791 32.3931 43.1228 32.4441 43.1447C32.4951 43.1665 32.5534 43.152 32.5898 43.1083L34.2439 41.1845C34.2804 41.1408 34.2803 41.0825 34.2585 41.0388C34.2293 40.9951 34.1783 40.966 34.1273 40.9732C34.12 40.9732 33.6318 41.0461 32.8157 40.3393L28.9538 37.0165C32.9979 37.6067 35.8834 38.0512 36.3935 38.4885C36.4445 38.5322 36.5319 38.5322 36.5757 38.4739L38.0185 36.7906C38.0549 36.7542 38.0622 36.6959 38.033 36.6522Z" fill="#00211A"/>
<path d="M51.2864 27.9228C51.2572 27.9665 51.2572 28.0248 51.2937 28.0685C51.3301 28.1123 51.3811 28.1269 51.4394 28.1123L57.9975 25.9918C58.0631 25.97 58.0995 25.8971 58.0776 25.8315L57.4291 23.8204C57.4073 23.7621 57.3562 23.7257 57.2907 23.7329C57.2324 23.7402 57.1814 23.7912 57.1741 23.8495C57.1741 23.8568 57.0502 24.7458 54.5436 25.5619C53.3559 25.9481 53.0134 25.7076 52.8385 25.1611L50.8419 19.0038C50.5067 17.9764 50.7618 17.5538 50.7618 17.5465C50.7909 17.5028 50.7909 17.4445 50.7545 17.4007C50.718 17.357 50.667 17.3425 50.6087 17.357L48.1968 18.1367C48.1458 18.1513 48.1094 18.2023 48.1094 18.2533C48.1094 18.3043 48.1385 18.3553 48.1895 18.3772C48.1968 18.3772 48.6486 18.5739 48.9838 19.6013L51.2062 26.4728C51.5414 27.5002 51.2864 27.9228 51.2864 27.9228Z" fill="#00211A"/>
<path d="M61.1331 25.2485C61.0966 25.285 61.0821 25.3505 61.1112 25.3943C61.1331 25.4453 61.1914 25.4744 61.2424 25.4671L63.7563 25.1392C63.8073 25.1319 63.851 25.0955 63.8656 25.0372C63.8802 24.9862 63.851 24.9279 63.8073 24.8988C63.8 24.8988 63.392 24.6219 63.2535 23.5507L62.3281 16.3878C62.1897 15.3167 62.5176 14.9451 62.5176 14.9451C62.554 14.9086 62.5686 14.8503 62.5394 14.7993C62.5176 14.7483 62.4593 14.7192 62.4083 14.7264L59.8943 15.0544C59.8433 15.0616 59.7996 15.0981 59.785 15.1564C59.7705 15.2074 59.7996 15.2657 59.8433 15.2948C59.8506 15.2948 60.2587 15.5717 60.3971 16.6429L61.3225 23.8058C61.461 24.8769 61.1404 25.2485 61.1331 25.2485Z" fill="#00211A"/>
<path d="M45.7041 24.8988C43.9772 22.2683 41.0188 21.5687 38.5194 23.2156C36.0201 24.8551 35.4808 27.8426 37.2078 30.4804C38.9347 33.111 41.8932 33.8105 44.3925 32.1637C46.8992 30.5169 47.4311 27.5293 45.7041 24.8988ZM43.4817 30.7646C41.9952 31.741 40.1808 31.1581 38.9712 29.3146C38.6579 28.8409 38.4319 28.3454 38.3081 27.8572C38.6433 28.3017 39.095 28.6369 39.576 28.7753C40.1152 28.9356 40.6617 28.8555 41.1426 28.5422C41.5871 28.2507 41.864 27.7406 41.8713 27.1795C41.8786 26.6257 41.6163 26.1084 41.1791 25.8023C41.1426 25.7732 41.0916 25.7732 41.0552 25.795C41.0115 25.8169 40.9896 25.8606 40.9969 25.9043C40.9969 25.9116 41.0115 26.4144 40.414 26.8079C39.8092 27.2087 39.1825 26.9464 38.8838 26.4873C38.6943 26.1958 38.636 25.8534 38.7234 25.5109C38.8254 25.1101 39.1242 24.7312 39.5833 24.4324C40.975 23.5216 42.7311 24.1701 43.9626 26.0428C45.1576 27.8936 44.9682 29.7882 43.4817 30.7646Z" fill="#00211A"/>
<path d="M14.3428 69.9018C14.3064 69.8654 14.2481 69.8508 14.197 69.8799C14.146 69.9018 14.1169 69.9601 14.1242 70.0111L14.35 71.8182C14.3573 71.8619 14.3865 71.9057 14.4302 71.9202L20.2159 74.2229L15.1807 77.8808C15.1443 77.9099 15.1224 77.9537 15.1297 77.9974L15.3556 79.8045C15.3629 79.8555 15.3993 79.8992 15.4576 79.9138C15.5086 79.9284 15.5669 79.8992 15.5961 79.8555C15.5961 79.8482 15.873 79.4402 16.9441 79.309L24.107 78.4054C25.1782 78.267 25.5498 78.6022 25.5498 78.6022C25.5862 78.6386 25.6445 78.6532 25.6955 78.624C25.7465 78.6022 25.7757 78.5439 25.7684 78.4929L25.4551 76.0081C25.4478 75.9571 25.4114 75.9134 25.3531 75.8988C25.3021 75.8842 25.2438 75.9134 25.2146 75.9571C25.2146 75.9644 24.9377 76.3724 23.8665 76.5036L19.3051 77.0793L23.6115 73.9022C23.6844 73.8439 23.6698 73.7128 23.5824 73.6763L18.6201 71.6652L23.1816 71.0895C24.2527 70.9511 24.6244 71.2863 24.6244 71.2863C24.6608 71.3227 24.7191 71.3373 24.7701 71.3082C24.8211 71.2863 24.8503 71.228 24.843 71.177L24.5297 68.6922C24.5224 68.6412 24.4859 68.5975 24.4276 68.5829C24.3766 68.5683 24.3183 68.5975 24.2892 68.6412C24.2892 68.6485 24.0123 69.0565 22.9412 69.1877L15.7783 70.0913C14.7071 70.237 14.3428 69.9091 14.3428 69.9018Z" fill="#00211A"/>
<path d="M29.0162 49.9362C29.6575 48.5372 29.7595 47.1163 29.3077 45.7172C29.3004 45.6808 29.2713 45.6516 29.2421 45.6371L27.0561 44.6315C26.0432 44.1651 25.6352 43.5385 25.6352 43.5385C25.6134 43.502 25.5623 43.4729 25.5186 43.4802C25.4749 43.4802 25.4311 43.5093 25.4093 43.553C24.9648 44.5222 24.6296 45.127 24.36 45.6152C24.1706 45.9577 24.0103 46.2492 23.8572 46.5771C23.3326 47.7211 23.7188 48.5445 24.3309 48.8505C24.8482 49.1128 25.5769 48.9963 25.9704 48.2822C25.9922 48.2457 25.9922 48.202 25.9777 48.1656C25.9631 48.1291 25.9267 48.1 25.8902 48.0927C25.7008 48.049 25.5623 47.9397 25.4822 47.7794C25.3656 47.5389 25.3875 47.1818 25.5332 46.8612L25.8246 46.22L26.8958 46.7082C27.6172 47.0361 28.0617 48.0053 27.5006 49.2149C26.7282 50.8908 25.0231 51.3207 22.9318 50.3589C20.8405 49.397 20.0535 47.8231 20.8186 46.1471C21.183 45.3456 21.7076 44.8865 22.2833 44.8574C22.7423 44.8282 23.1942 45.0833 23.4492 45.4986C23.4711 45.535 23.5075 45.5569 23.5512 45.5569C23.5949 45.5569 23.6313 45.5423 23.6605 45.5132C24.0685 45.0177 24.2507 44.3764 24.1269 43.8518C24.0321 43.4292 23.7552 43.1013 23.3399 42.9118C22.1667 42.3726 20.3377 43.1596 19.303 45.4112C18.0497 48.1437 19.1718 50.971 22.0428 52.2899C24.8992 53.6161 27.7702 52.6469 29.0162 49.9362Z" fill="#00211A"/>
<path d="M24.5966 65.9595L25.0484 63.227C25.0557 63.1833 25.0411 63.1396 25.0047 63.1104C24.9755 63.0813 24.9245 63.0667 24.8881 63.0813C24.2833 63.2416 23.7659 62.972 22.7312 62.4328C22.702 62.4182 22.6656 62.3963 22.6365 62.3818L23.1684 59.161C23.2049 59.1537 23.2413 59.1464 23.2704 59.1464C24.4218 58.9716 25.0047 58.8768 25.522 59.2266C25.5585 59.2485 25.6022 59.2557 25.6459 59.2412C25.6823 59.2266 25.7115 59.1902 25.7188 59.1464L26.1706 56.4139C26.1778 56.3629 26.156 56.3046 26.105 56.2827C26.054 56.2609 25.9957 56.2609 25.9592 56.2973C25.9519 56.3046 25.5075 56.6908 24.859 56.8074L16.4209 58.2793C15.9108 58.3595 15.5246 58.2429 15.4663 58.1554C15.4372 58.1117 15.3862 58.0971 15.3352 58.1044C15.2842 58.119 15.2477 58.1554 15.2404 58.2064L14.8178 60.7495C14.8105 60.8005 14.8324 60.8515 14.8761 60.8807C14.9198 60.9098 14.9781 60.9098 15.0218 60.8734C15.1093 60.8078 15.51 60.8224 15.9691 61.0628L23.4817 65.1726C24.0574 65.4859 24.3562 66.0033 24.3562 66.0106C24.3853 66.0543 24.4363 66.0834 24.4873 66.0761C24.5383 66.0688 24.5893 66.0106 24.5966 65.9595ZM17.6742 59.9043L21.3103 59.4161L20.9605 61.5292L17.6742 59.9043Z" fill="#00211A"/>
<path d="M76.7839 25.3142C76.7766 25.3069 76.354 24.8988 76.1937 24.2576L74.0878 15.958C73.964 15.4552 74.0587 15.0617 74.1388 14.9961C74.1753 14.9597 74.1971 14.9087 74.1753 14.8577C74.1607 14.8067 74.117 14.7702 74.0659 14.7702L71.501 14.5443C71.45 14.537 71.399 14.5662 71.3771 14.6099C71.3553 14.6536 71.3553 14.7119 71.3917 14.7484C71.4573 14.8285 71.4791 15.2293 71.2751 15.7029L67.7483 23.5071C67.4787 24.1046 66.9832 24.4398 66.9832 24.4398C66.9395 24.4689 66.9177 24.5272 66.9322 24.5782C66.9468 24.6292 66.9905 24.6729 67.0488 24.6729L69.8105 24.9134C69.8542 24.9207 69.8979 24.8988 69.9198 24.8624C69.9489 24.8259 69.9562 24.7822 69.9417 24.7385C69.7376 24.1483 69.9635 23.6091 70.4299 22.5379C70.4444 22.5088 70.459 22.4723 70.4736 22.4432L73.7235 22.7274C73.7308 22.7638 73.738 22.8002 73.7453 22.8294C74.0077 23.9661 74.1461 24.5345 73.8401 25.081C73.8182 25.1174 73.8182 25.1684 73.8401 25.2049C73.8619 25.2413 73.8984 25.2704 73.9421 25.2704L76.7037 25.5109C76.7548 25.5182 76.813 25.489 76.8349 25.438C76.8349 25.4089 76.8276 25.3506 76.7839 25.3142ZM71.1731 20.7162L72.5503 17.3206L73.3081 20.9057L71.1731 20.7162Z" fill="#00211A"/>
<path d="M101.822 40.3467C101.822 40.3394 101.749 39.7492 102.026 39.1517L105.611 31.3767C105.829 30.9103 106.15 30.6626 106.252 30.6626C106.303 30.6626 106.347 30.6262 106.368 30.5824C106.39 30.5314 106.376 30.4804 106.339 30.444L104.488 28.6587C104.452 28.6223 104.394 28.615 104.35 28.6296C104.299 28.6515 104.27 28.6952 104.27 28.7462C104.27 28.8555 104.037 29.1761 103.578 29.4166L95.9265 33.264C95.3436 33.5554 94.7461 33.5117 94.7388 33.5117C94.6878 33.5044 94.6295 33.5336 94.6076 33.5846C94.5858 33.6356 94.5931 33.6939 94.6368 33.7303L96.6261 35.654C96.6552 35.6832 96.6989 35.6977 96.7427 35.6832C96.7864 35.6686 96.8228 35.6395 96.8374 35.603C97.0487 35.0128 97.5661 34.7432 98.6008 34.1967C98.6299 34.1821 98.6664 34.1602 98.6955 34.1457L101.042 36.4118C101.027 36.441 101.013 36.4774 100.998 36.5066C100.488 37.5559 100.233 38.0878 99.6574 38.3137C99.6136 38.3283 99.5845 38.3647 99.5772 38.4084C99.5699 38.4521 99.5845 38.4959 99.6136 38.525L101.603 40.4487C101.639 40.4851 101.698 40.4924 101.749 40.4706C101.8 40.456 101.829 40.405 101.822 40.3467ZM100.35 33.2494L103.556 31.4714L101.887 34.7359L100.35 33.2494Z" fill="#00211A"/>
<path d="M107.395 49.1855C107.395 49.1782 107.395 48.5589 108.066 47.6043L111.607 42.5692C113.429 42.7513 115.061 43.2322 115.826 43.786C115.877 43.8225 115.943 43.8152 115.986 43.7788C116.03 43.735 116.045 43.6695 116.008 43.6185L114.391 40.9369C114.369 40.9005 114.332 40.8786 114.296 40.8786C114.252 40.8713 114.216 40.8859 114.187 40.9151C113.975 41.1409 113.225 41.1191 112.277 41.0899C111.505 41.0681 110.558 41.0389 109.538 41.1264L111.782 39.771C112.707 39.21 113.181 39.363 113.181 39.363C113.232 39.3848 113.29 39.3703 113.327 39.3265C113.363 39.2828 113.363 39.2245 113.341 39.1808L112.03 37.0094C112.001 36.9656 111.95 36.9365 111.891 36.9511C111.84 36.9583 111.797 37.0021 111.789 37.0604C111.789 37.0677 111.702 37.5486 110.776 38.1096L104.59 41.8405C103.664 42.4016 103.191 42.2485 103.191 42.2485C103.14 42.2267 103.082 42.2412 103.045 42.285C103.009 42.3287 103.009 42.387 103.031 42.4307L104.342 44.6021C104.371 44.6459 104.422 44.675 104.481 44.6605C104.532 44.6532 104.575 44.6095 104.583 44.5512C104.583 44.5439 104.67 44.0629 105.595 43.5019C106.579 42.9116 107.869 42.6129 109.202 42.5254L106.798 45.7025C106.142 46.5696 105.763 46.5404 105.763 46.5404C105.712 46.5331 105.661 46.5477 105.632 46.5914C105.603 46.6352 105.603 46.6862 105.625 46.7299L107.148 49.2511C107.177 49.3021 107.235 49.324 107.293 49.3094C107.352 49.2948 107.395 49.2438 107.395 49.1855Z" fill="#00211A"/>
<path d="M111.714 69.472C111.714 69.4647 112.006 68.9109 113.04 68.3498L116.166 66.6739C116.713 67.7888 117.704 68.4081 118.964 68.328C120.422 68.2405 121.828 66.9435 121.69 64.6482L121.471 61.085C121.471 61.0339 121.427 60.9829 121.376 60.9684C121.325 60.9538 121.267 60.9756 121.238 61.0194C121.238 61.0266 120.932 61.4128 119.853 61.4784L112.647 61.9156C111.568 61.9812 111.233 61.6315 111.226 61.6315C111.189 61.5877 111.131 61.5732 111.08 61.595C111.029 61.6169 111 61.6679 111 61.7189L111.153 64.262C111.153 64.313 111.197 64.364 111.248 64.3786C111.299 64.3931 111.357 64.3713 111.386 64.3275C111.386 64.3203 111.685 63.9341 112.763 63.8685L115.649 63.6936L115.715 64.7356L112.807 66.1128C111.823 66.5792 111.503 66.3751 111.503 66.3751C111.466 66.346 111.408 66.3387 111.364 66.3606C111.321 66.3824 111.291 66.4334 111.291 66.4844L111.466 69.421C111.466 69.4793 111.51 69.5303 111.568 69.5376C111.634 69.5521 111.692 69.523 111.714 69.472ZM117.39 64.415L117.339 63.5916L119.088 63.4823C119.693 63.4458 119.992 63.424 120.065 64.6409C120.123 65.5444 119.657 66.1565 118.884 66.2075C117.871 66.2731 117.449 65.3258 117.39 64.415Z" fill="#00211A"/>
<path d="M120.425 81.2107L120.95 77.9389C120.957 77.8879 120.935 77.8369 120.891 77.8078C120.848 77.7786 120.789 77.7859 120.746 77.8151C120.746 77.8151 120.578 77.9389 120.367 77.9025C119.995 77.8442 119.478 77.4871 118.829 77.0354C118.421 76.7512 117.947 76.4233 117.394 76.0954C118.02 75.9496 118.574 75.7893 119.048 75.6509C119.813 75.425 120.41 75.2501 120.782 75.3084C120.993 75.3448 121.11 75.5124 121.117 75.5124C121.146 75.5562 121.197 75.578 121.248 75.5635C121.299 75.5489 121.336 75.5124 121.35 75.4614L121.897 72.0367C121.904 71.9711 121.868 71.9128 121.802 71.8909C121.737 71.8763 121.671 71.9055 121.649 71.9638C120.884 73.8073 115.579 74.7255 114.195 74.5069L112.57 74.2664C111.499 74.0988 111.244 73.6762 111.236 73.6762C111.207 73.6252 111.156 73.6033 111.098 73.6106C111.047 73.6179 111.003 73.6616 110.996 73.7199L110.595 76.2265C110.588 76.2776 110.61 76.3358 110.661 76.3577C110.712 76.3869 110.77 76.3796 110.806 76.3431C110.814 76.3431 111.193 76.0225 112.257 76.1974L113.881 76.4597C115.266 76.6783 120.017 79.2068 120.17 81.2107C120.177 81.2763 120.228 81.3273 120.294 81.3273C120.352 81.32 120.41 81.2763 120.425 81.2107Z" fill="#00211A"/>
<path d="M93.9288 26.6911C94.7449 26.7129 95.7432 26.4069 96.297 25.4377C96.8945 24.3957 96.7925 22.7125 94.5482 21.43L91.4513 19.6593C91.4076 19.6302 91.3493 19.6375 91.3056 19.6739C91.2619 19.7103 91.2473 19.7686 91.2691 19.8197C91.2691 19.8269 91.4295 20.2933 90.8976 21.226L87.3124 27.4926C86.7732 28.4326 86.2996 28.52 86.2923 28.52C86.234 28.5273 86.1903 28.571 86.183 28.622C86.1757 28.6731 86.1976 28.7313 86.2486 28.7605L89.4912 30.6186C91.1088 31.544 93.3751 31.9594 94.4462 30.0867C95.0437 29.0228 94.8324 27.6966 93.9288 26.6911ZM92.1509 22.9675C92.4496 22.4429 92.6026 22.1805 93.6592 22.7853C94.6502 23.3537 94.6721 24.1188 94.3733 24.6435C93.958 25.3722 93.0982 25.4523 92.078 24.8694L91.3202 24.4322L92.1509 22.9675ZM90.1179 29.2778C89.0103 28.6439 89.0977 28.3014 89.3819 27.8132L90.4749 25.9114L91.5315 26.5162C92.6901 27.1793 93.0763 28.0974 92.5808 28.9718C92.1217 29.7515 91.1599 29.8754 90.1179 29.2778Z" fill="#00211A"/>
<path d="M120.285 55.0149L118.216 48.5515C118.201 48.5005 118.15 48.4641 118.099 48.4641C118.048 48.4641 117.997 48.4932 117.975 48.5443C117.975 48.5515 117.778 49.0033 116.751 49.3312L109.872 51.5391C108.845 51.867 108.422 51.612 108.415 51.612C108.371 51.5828 108.313 51.5828 108.269 51.6193C108.225 51.6557 108.204 51.7067 108.225 51.765L110.295 58.2284C110.317 58.2939 110.39 58.3304 110.455 58.3085L112.466 57.66C112.525 57.6381 112.568 57.5798 112.554 57.5142C112.539 57.4487 112.488 57.405 112.423 57.405C112.415 57.405 111.57 57.3685 110.768 54.8619C110.39 53.6669 110.63 53.3317 111.177 53.1568L113.567 52.3917L114.033 53.8563C114.507 55.3355 114.062 55.6853 114.062 55.6853C114.011 55.7144 113.989 55.78 114.011 55.831C114.011 55.8383 114.018 55.8383 114.018 55.8456C114.047 55.9039 114.113 55.933 114.171 55.9112L116.634 55.1242C116.693 55.1023 116.729 55.044 116.722 54.9857C116.714 54.9274 116.656 54.8764 116.591 54.8764C116.583 54.8764 116.022 54.8546 115.549 53.3681L115.082 51.9035L116.627 51.4079C117.174 51.2331 117.567 51.3642 117.946 52.5593C118.624 54.687 118.252 55.5614 118.252 55.5687C118.23 55.6124 118.237 55.6707 118.274 55.7071C118.31 55.7436 118.361 55.7581 118.412 55.7436L120.205 55.1679C120.27 55.1606 120.307 55.0878 120.285 55.0149Z" fill="#00211A"/>
<path d="M76.101 63.8466C76.101 60.0429 77.5729 57.58 79.8537 57.5654C80.8884 57.5727 81.6317 58.0901 81.9086 58.9863C82.1927 59.9263 81.8794 61.0048 81.1726 61.4857C81.0633 61.5586 81.005 61.697 81.0341 61.8282C81.0633 61.9593 81.1726 62.0613 81.3038 62.0832C81.4641 62.1051 81.6244 62.1196 81.792 62.1123C83.4388 62.0978 85.2167 60.7643 85.2167 58.622C85.2167 56.0571 83.0234 54.6726 80.954 54.6726H80.9103C75.1683 54.6726 73.0697 60.604 71.2189 65.8359C70.5995 67.592 70.0093 69.2606 69.3098 70.6524C68.7851 68.1968 67.7431 66.2366 66.8177 64.4805C65.353 61.7261 64.3912 59.9045 66.2785 57.9079C66.3805 57.7986 66.3951 57.6383 66.3222 57.5144C66.2566 57.4051 66.14 57.3468 66.0162 57.3541C65.9797 57.3541 65.9433 57.3541 65.9068 57.3687C65.8995 57.3687 65.3166 57.529 64.5224 57.5363C61.6951 57.529 59.4654 55.7656 57.1045 53.9075C54.5031 51.8526 51.807 49.7249 48.0616 49.7249H48.0179C41.7512 49.7249 38.4722 54.4248 38.4722 59.0665C38.4722 61.3545 39.2592 63.475 40.6947 65.0343C42.3123 66.7904 44.6441 67.7231 47.4349 67.7231H47.4786C49.6428 67.7231 51.4354 67.0382 52.6814 65.7411C53.7598 64.6117 54.3573 63.0961 54.3573 61.4638C54.3573 58.724 52.594 55.9477 49.2275 55.9477H49.1838C48.0106 55.9477 46.8884 56.436 46.1014 57.2958C45.4019 58.0536 45.0449 59.0082 45.1177 59.919C45.125 60.0283 45.2052 60.1158 45.3072 60.1668C45.3291 60.1814 45.3582 60.1959 45.3873 60.2032C45.5112 60.2469 45.6497 60.2105 45.7371 60.1085C46.1889 59.6057 47.0196 59.2851 47.9086 59.2778C48.6956 59.2778 49.4169 59.5183 49.927 59.9628C50.5391 60.4874 50.8451 61.2598 50.8451 62.2508C50.8451 63.8247 49.621 65.4643 47.5734 65.4715C43.7478 65.457 42.0063 62.4767 42.0063 59.7077C42.0063 56.5744 44.1194 53.2006 48.7392 53.1934C50.9981 53.2006 53.2498 54.6361 55.6398 56.1518C57.7384 57.4853 59.8953 58.8552 62.1979 59.3288C59.0792 61.6096 57.6436 67.1475 56.5652 72.8603C55.2172 80.045 53.1915 84.8325 47.7045 84.847C42.9827 84.8397 40.8331 81.3494 40.8258 78.1141C40.8258 75.3815 42.4144 72.4377 45.8974 72.4231C48.0033 72.4377 49.3003 74.1063 49.3003 75.6438C49.3003 77.8372 47.7847 78.6169 46.3638 78.6169C45.4748 78.6096 44.6368 78.2889 44.1923 77.7862C44.1486 77.7351 44.083 77.706 44.0174 77.6987C43.9446 77.6696 43.8717 77.6696 43.7915 77.6914C43.6677 77.7351 43.5802 77.8445 43.5657 77.9756C43.4928 78.8865 43.8498 79.841 44.5494 80.5989C45.3363 81.4514 46.4658 81.9469 47.6317 81.9469H47.6754C51.0419 81.9469 52.8053 79.1707 52.8053 76.4308C52.8053 74.7986 52.2078 73.2829 51.1293 72.1535C49.8906 70.8564 48.0907 70.1715 45.9266 70.1715H45.8828C41.4962 70.1715 37.0586 73.0279 37.0586 78.493C37.0586 80.8174 37.9548 82.9816 39.5871 84.592C41.4306 86.4137 44.083 87.3755 47.2455 87.3755H47.2892C51.0419 87.3755 54.1314 85.94 56.4851 83.1128C58.897 80.2054 59.8953 76.5984 60.3033 74.0772C60.5219 72.7437 60.6968 71.4321 60.8644 70.1715C61.4182 66.0399 61.9064 62.3674 63.6261 60.2615C63.116 62.3091 64.0998 65.0271 65.1199 67.8616C66.2421 70.973 67.4006 74.1938 66.9853 77.0866C66.9634 77.2251 67.0363 77.3562 67.1529 77.4218C67.2112 77.451 67.2695 77.4655 67.3278 77.4582C67.4152 77.4582 67.5027 77.4364 67.5682 77.3708C70.8983 74.3614 72.2026 69.6104 73.2446 65.7994C73.3903 65.2602 73.5361 64.7429 73.6745 64.2546C73.6454 64.6919 73.6308 65.1436 73.6308 65.6027C73.6308 68.736 74.3376 71.7236 75.0882 74.886C75.8606 78.1505 76.6621 81.5243 76.6621 85.1822C76.6621 91.9079 73.7766 95.6168 68.5301 95.6314C65.5279 95.6241 62.4821 93.5037 62.4821 89.4523C62.4821 85.787 64.4568 83.2221 67.2767 83.2075C69.3826 83.2221 70.6797 84.8908 70.6797 86.4283C70.6797 88.6216 69.164 89.4012 67.7431 89.4012C66.8541 89.394 66.0162 89.0733 65.5717 88.5705C65.5061 88.4904 65.4041 88.454 65.3021 88.4612C65.2583 88.4612 65.2146 88.4613 65.1709 88.4758C65.047 88.5196 64.9596 88.6288 64.9523 88.76C64.8794 89.6709 65.2365 90.6254 65.936 91.3832C66.723 92.2358 67.8524 92.7313 69.0183 92.7313H69.062C72.4285 92.7313 74.1919 89.955 74.1919 87.2152C74.1919 85.583 73.5944 84.0673 72.5159 82.9379C71.2772 81.6409 69.4773 80.9559 67.3132 80.9559H67.2695C61.4692 80.9559 58.4379 85.2842 58.4379 89.5616C58.4379 93.6931 61.9283 98.0798 68.3989 98.0798H68.4427C72.0423 98.0798 75.1392 96.7026 77.4054 94.1085C79.5185 91.682 80.6844 88.3957 80.6844 84.8616C80.6844 80.8029 79.4602 77.2032 78.2798 73.7202C77.1722 70.3901 76.101 67.2495 76.101 63.8466Z" fill="#00211A"/>
<path d="M91.4319 64.7794C93.8656 62.9796 95.2428 60.3345 95.2428 57.4125C95.2428 51.2042 90.0765 48.3769 85.2745 48.3769H85.2308C82.0611 48.3769 79.518 49.5355 77.0696 50.6504C74.7743 51.6924 72.6102 52.6834 70.0671 52.6907C66.3654 52.6834 62.62 50.1767 62.62 45.4039C62.62 40.7622 66.1687 38.6418 69.4696 38.6272C72.1948 38.6345 75.0221 40.4416 75.0221 43.4584C75.0221 45.5788 73.4554 46.854 71.9471 46.8613C70.6063 46.854 69.6299 46.2419 69.2146 45.1416C68.7628 43.9539 69.0397 42.4163 69.8339 41.7095C69.9286 41.6221 69.9651 41.4836 69.9286 41.3598C69.8922 41.2359 69.7756 41.1485 69.6444 41.1339C69.5716 41.1266 69.4987 41.1266 69.4259 41.1266C68.5296 41.1047 67.6042 41.4982 66.8828 42.205C66.074 42.9993 65.6294 44.0631 65.6294 45.1999C65.6294 46.6062 66.125 47.8377 67.065 48.7631C68.1142 49.7905 69.6445 50.3735 71.2621 50.3371C75.5103 50.2933 77.4486 46.7447 77.4486 43.4656C77.4486 38.8968 73.6522 35.4502 68.6243 35.4502H68.5806C62.2193 35.4502 58.8965 40.3323 58.8965 45.1562C58.8965 47.7648 59.8219 50.1986 61.4979 52.0057C63.3997 54.0533 66.125 55.1317 69.3821 55.1317H69.4259C71.9544 55.1317 73.8926 54.1917 75.9475 53.2007C78.1554 52.1296 80.4361 51.0293 83.6642 51.022C88.6119 51.0293 91.5703 53.7327 91.5703 58.2578C91.5703 60.7425 90.47 62.863 88.386 64.4078C88.1455 64.4005 87.9051 64.3932 87.6646 64.3932C84.4074 64.3932 81.0409 65.3405 81.0409 66.929C81.0409 67.2277 81.1721 67.4974 81.4126 67.7014C81.8935 68.1167 82.8043 68.2625 83.8536 68.0949C85.0486 67.9054 87.1909 67.0674 88.7212 66.3533C93.494 66.8488 98.5656 69.9093 98.5656 77.0284C98.5656 82.5591 95.0388 85.4592 91.5557 85.4592C86.8776 85.4592 85.2162 81.6847 85.2162 78.4566C85.2162 75.6367 86.7902 72.6345 89.7049 72.6345C91.8326 72.6345 93.1078 74.2084 93.1078 75.7314C93.1078 77.0867 92.4957 78.0631 91.3954 78.4858C90.2077 78.9376 88.6629 78.6607 87.9561 77.8737C87.8686 77.7717 87.7302 77.7352 87.6063 77.779C87.4824 77.8227 87.395 77.932 87.3804 78.0631C87.3076 78.974 87.6646 79.9286 88.3641 80.6864C89.1511 81.5389 90.2806 82.0344 91.4464 82.0344C94.8129 82.0344 96.5763 79.2582 96.5763 76.5184C96.5763 74.8861 95.9788 73.3705 94.9004 72.241C93.6616 70.944 91.8618 70.259 89.6976 70.259C84.9904 70.259 81.704 73.7494 81.704 78.7481C81.704 83.8561 85.7992 87.5578 91.4464 87.5578C97.4362 87.5578 102.122 82.8724 102.122 76.8973C102.114 68.0439 94.7328 65.4789 91.4319 64.7794Z" fill="#00211A"/>
</svg>
